<svg xmlns="http://www.w3.org/2000/svg" xmlns:xlink="http://www.w3.org/1999/xlink" width="583" height="315" viewBox="0 0 583 315">
    <defs>
        <radialGradient id="a" fx="50%" fy="50%" gradientTransform="matrix(0 1 -.52349 0 .762 0)">
            <stop offset="0%" stop-color="#D2DBEB"/>
            <stop offset="100%" stop-color="#FFF" stop-opacity="0"/>
        </radialGradient>
        <path id="b" d="M360.699 135.983h1.097v3.295h-1.097z"/>
        <path id="d" d="M450.447 300.253l-.25-.03c.071-.01.148-.02.224-.032l26.993.006v.05l-26.967.006"/>
        <linearGradient id="e" x1="-976.1%" x2="-976.1%" y1="-20992%" y2="30826.9%">
            <stop offset="0%" stop-color="#D1DFE2"/>
            <stop offset="100%" stop-color="#D1DFE2"/>
        </linearGradient>
        <path id="g" d="M450.198 300.223a14.503 14.503 0 0 0-.332-.032h.555c-.076.012-.153.023-.223.032"/>
        <linearGradient id="h" x1="-41598.2%" x2="-41598.2%" y1="-20992%" y2="30826.9%">
            <stop offset="0%" stop-color="#E46F6E"/>
            <stop offset="100%" stop-color="#D1DFE2"/>
        </linearGradient>
        <path id="j" d="M6.903 300.225a3.01 3.01 0 0 0-.305-.126h.576c-.088.047-.178.09-.27.126"/>
        <linearGradient id="k" x1="27898.9%" x2="27898.9%" y1="-20977.6%" y2="30841.3%">
            <stop offset="0%" stop-color="#FFFFFE"/>
            <stop offset="100%" stop-color="#D1DFE2"/>
        </linearGradient>
        <path id="m" d="M16.754 300.2c-.21-.03-.417-.063-.62-.1l2.631.001-.612.016c-.48.014-.946.041-1.399.082"/>
        <linearGradient id="n" x1="6397.843%" x2="6397.843%" y1="-20977.9%" y2="30841%">
            <stop offset="0%" stop-color="#711D41"/>
            <stop offset="100%" stop-color="#D1DFE2"/>
        </linearGradient>
        <path id="p" d="M423.607 300.26a6.419 6.419 0 0 0-.268-.035c.083-.011.166-.025.255-.04l23.74.005.102.021c-.096.014-.185.028-.274.044l-23.555.006"/>
        <linearGradient id="q" x1="-990.979%" x2="-990.979%" y1="-20991.2%" y2="30827.7%">
            <stop offset="0%" stop-color="#D1DFE2"/>
            <stop offset="100%" stop-color="#D1DFE2"/>
        </linearGradient>
        <path id="s" d="M423.34 300.225c-.141-.018-.281-.03-.415-.04h.67c-.09.015-.173.029-.256.04"/>
        <linearGradient id="t" x1="-35594.476%" x2="-35594.476%" y1="-20991.1%" y2="30827.8%">
            <stop offset="0%" stop-color="#E46F6E"/>
            <stop offset="100%" stop-color="#D1DFE2"/>
        </linearGradient>
        <path id="v" d="M447.436 300.211l-.102-.02h.255l-.115.014-.038.006"/>
        <linearGradient id="w" x1="-41201.2%" x2="-41201.2%" y1="-20991.9%" y2="30827%">
            <stop offset="0%" stop-color="#F4B727"/>
            <stop offset="100%" stop-color="#D1DFE2"/>
        </linearGradient>
        <path id="y" d="M421.579 300.215a6.175 6.175 0 0 1-.408-.03h.676a3.63 3.63 0 0 0-.268.03"/>
        <linearGradient id="z" x1="-34999.245%" x2="-34999.245%" y1="-20991.1%" y2="30827.8%">
            <stop offset="0%" stop-color="#F4B727"/>
            <stop offset="100%" stop-color="#D1DFE2"/>
        </linearGradient>
        <path id="B" d="M388.66 300.24a1.309 1.309 0 0 0-.235-.062h.382a1.308 1.308 0 0 1-.146.062"/>
        <linearGradient id="C" x1="-31965.2%" x2="-31965.2%" y1="-20990%" y2="30828.9%">
            <stop offset="0%" stop-color="#E2EDF1"/>
            <stop offset="100%" stop-color="#D1DFE2"/>
        </linearGradient>
        <linearGradient id="E" x1="-29154.2%" x2="-29154.2%" y1="-20989.4%" y2="30829.5%">
            <stop offset="0%" stop-color="#E2EDF1"/>
            <stop offset="100%" stop-color="#D1DFE2"/>
        </linearGradient>
        <path id="F" d="M315.892 300.274a.969.969 0 0 0-.192-.11h.338a1.08 1.08 0 0 1-.146.11"/>
        <linearGradient id="G" x1="-20563.2%" x2="-20563.2%" y1="-20987.7%" y2="30831.2%">
            <stop offset="0%" stop-color="#E2EDF1"/>
            <stop offset="100%" stop-color="#D1DFE2"/>
        </linearGradient>
        <path id="I" d="M298.364 300.278a1.256 1.256 0 0 0-.204-.118h.364a1.05 1.05 0 0 1-.16.118"/>
        <linearGradient id="J" x1="-17813.2%" x2="-17813.2%" y1="-20987.1%" y2="30831.8%">
            <stop offset="0%" stop-color="#E2EDF1"/>
            <stop offset="100%" stop-color="#D1DFE2"/>
        </linearGradient>
        <path id="L" d="M314.654 300.165v-.002h.007s0 .002-.007.002"/>
        <linearGradient id="M" x1="-20399.2%" x2="-20399.2%" y1="-20987.6%" y2="30831.3%">
            <stop offset="0%" stop-color="#E2EDF1"/>
            <stop offset="100%" stop-color="#D1DFE2"/>
        </linearGradient>
        <path id="O" d="M185.865 300.246c-.189-.04-.382-.076-.579-.11h.992c-.136.039-.273.076-.413.11"/>
        <linearGradient id="P" x1="-74.92%" x2="-74.92%" y1="-20983.4%" y2="30835.5%">
            <stop offset="0%" stop-color="#2C2246"/>
            <stop offset="58.73%" stop-color="#3E2D60"/>
            <stop offset="100%" stop-color="#D1DFE2"/>
        </linearGradient>
        <path id="R" d="M297.131 300.162l-.002-.002h.009c-.002 0-.005 0-.007.002"/>
        <linearGradient id="S" x1="-17651.5%" x2="-17651.5%" y1="-20987.1%" y2="30831.8%">
            <stop offset="0%" stop-color="#E2EDF1"/>
            <stop offset="100%" stop-color="#D1DFE2"/>
        </linearGradient>
        <path id="U" d="M80.875 300.205c-.139-.033-.279-.063-.42-.09h.822c-.133.032-.267.062-.402.09"/>
        <linearGradient id="V" x1="12660.512%" x2="12660.512%" y1="-20980%" y2="30838.9%">
            <stop offset="0%" stop-color="#FFFFFE"/>
            <stop offset="100%" stop-color="#D1DFE2"/>
        </linearGradient>
        <path id="X" d="M24.533 300.344c-.105-.13-.235-.215-.375-.227a8.373 8.373 0 0 0-.201-.014h.895c-.092.131-.202.219-.32.24"/>
        <linearGradient id="Y" x1="17945.331%" x2="17945.331%" y1="-20978.2%" y2="30840.7%">
            <stop offset="0%" stop-color="#711D41"/>
            <stop offset="100%" stop-color="#D1DFE2"/>
        </linearGradient>
        <path id="aa" d="M46.696 300.17c-.193-.02-.384-.04-.573-.063h.876c-.101.02-.202.04-.303.063"/>
        <linearGradient id="ab" x1="15794.76%" x2="15794.76%" y1="-20978.9%" y2="30840%">
            <stop offset="0%" stop-color="#711D41"/>
            <stop offset="100%" stop-color="#D1DFE2"/>
        </linearGradient>
        <path id="ad" d="M165.212 300.33l-.073-.04a5.15 5.15 0 0 0 .252-.158h2.748c.007.07.017.142.028.197h-2.955"/>
        <linearGradient id="ae" x1="640.889%" x2="640.889%" y1="-20982.8%" y2="30836.1%">
            <stop offset="0%" stop-color="#D1DFE2"/>
            <stop offset="100%" stop-color="#D1DFE2"/>
        </linearGradient>
        <path id="ag" d="M165.139 300.29a5.25 5.25 0 0 0-.33-.158h.582a5.15 5.15 0 0 1-.252.158"/>
        <linearGradient id="ah" x1="3093.9%" x2="3093.9%" y1="-20982.8%" y2="30836.1%">
            <stop offset="0%" stop-color="#2C2246"/>
            <stop offset="58.73%" stop-color="#3E2D60"/>
            <stop offset="100%" stop-color="#D1DFE2"/>
        </linearGradient>
        <path id="aj" d="M170.386 301.357c-1.164-.1-1.932-.317-1.99-.71a.15.15 0 0 1-.007-.036c.339.22 1.055.475 1.997.746"/>
        <linearGradient id="ak" x1="809.169%" x2="809.169%" y1="-18013.601%" y2="26313.944%">
            <stop offset="0%" stop-color="#2C2246"/>
            <stop offset="58.73%" stop-color="#3E2D60"/>
            <stop offset="100%" stop-color="#D1DFE2"/>
        </linearGradient>
        <path id="am" d="M559.63 300.225v-.011l23.344.004-23.345.007"/>
        <linearGradient id="an" x1="-1606.754%" x2="-1606.754%" y1="-20995.6%" y2="30823.3%">
            <stop offset="0%" stop-color="#D1DFE2"/>
            <stop offset="100%" stop-color="#D1DFE2"/>
        </linearGradient>
        <path id="ap" d="M559.616 300.214h.013v.213h-.013z"/>
        <linearGradient id="aq" x1="-58805.2%" x2="-58805.2%" y1="-20995.6%" y2="30823.3%">
            <stop offset="0%" stop-color="#E2EDF1"/>
            <stop offset="100%" stop-color="#D1DFE2"/>
        </linearGradient>
        <path id="as" d="M-4.236 300.103l-.021-.006h.053l-.032.006"/>
        <linearGradient id="at" x1="29600.8%" x2="29600.8%" y1="-20977.3%" y2="30841.6%">
            <stop offset="0%" stop-color="#FFFFFE"/>
            <stop offset="100%" stop-color="#D1DFE2"/>
        </linearGradient>
        <path id="av" d="M371.733 300.263a.993.993 0 0 0-.147-.088h.268a.95.95 0 0 1-.121.088"/>
        <linearGradient id="aw" x1="-29325.2%" x2="-29325.2%" y1="-20989.5%" y2="30829.4%">
            <stop offset="0%" stop-color="#E2EDF1"/>
            <stop offset="100%" stop-color="#D1DFE2"/>
        </linearGradient>
        <path id="ay" d="M387.908 300.198l-.038-.02h.134a1.274 1.274 0 0 0-.096.02"/>
        <linearGradient id="az" x1="-31878.2%" x2="-31878.2%" y1="-20990%" y2="30828.9%">
            <stop offset="0%" stop-color="#E2EDF1"/>
            <stop offset="100%" stop-color="#D1DFE2"/>
        </linearGradient>
        <path id="aB" d="M79.961 300.352c.31-.036.614-.085.914-.147.185.044.37.093.55.147h-1.464"/>
        <linearGradient id="aC" x1="7144.532%" x2="7144.532%" y1="-20994.3%" y2="30824.6%">
            <stop offset="0%" stop-color="#D1DFE2"/>
            <stop offset="100%" stop-color="#FFFFFE"/>
        </linearGradient>
        <path id="aE" d="M78.73 300.422H59.036a.713.713 0 0 0-.167-.131c.232-.073.419-.207.519-.372H78.42a10.63 10.63 0 0 1 2.454.286 10.74 10.74 0 0 1-2.145.217"/>
        <linearGradient id="aF" x1="571.086%" x2="571.086%" y1="-20949.4%" y2="30869.5%">
            <stop offset="0%" stop-color="#FFFFFE"/>
            <stop offset="100%" stop-color="#FFFFFE"/>
        </linearGradient>
        <path id="aH" d="M46.325 300.259c.123-.032.247-.062.371-.09.126.013.252.026.38.037-.254.016-.504.033-.75.053"/>
        <linearGradient id="aI" x1="18427.126%" x2="18427.126%" y1="-20988.7%" y2="30830.2%">
            <stop offset="0%" stop-color="#D1DFE2"/>
            <stop offset="100%" stop-color="#FFFFFE"/>
        </linearGradient>
        <path id="aK" d="M58.87 300.29a1.418 1.418 0 0 0-.63-.173c-.562-.03-1.489-.062-3.31-.062-1.334 0-3.149.017-5.653.062-.756.014-1.491.044-2.202.09a34.664 34.664 0 0 1-.379-.037c.101-.023.202-.043.303-.063a10.685 10.685 0 0 1 1.997-.188h10.392c-.1.165-.287.3-.519.372"/>
        <linearGradient id="aL" x1="1086.144%" x2="1086.144%" y1="-20949.4%" y2="30869.5%">
            <stop offset="0%" stop-color="#711D41"/>
            <stop offset="100%" stop-color="#FFFFFE"/>
        </linearGradient>
        <path id="aN" d="M-5.412 300.374c.383-.11.776-.2 1.176-.271.486.128.983.22 1.487.27l-2.663.001m11.82-.003c.171-.033.336-.082.495-.146.092.044.18.093.266.146h-.76"/>
        <linearGradient id="aO" x1="1509.927%" x2="1509.927%" y1="-20978.2%" y2="30840.7%">
            <stop offset="0%" stop-color="#D1DFE2"/>
            <stop offset="100%" stop-color="#FFFFFE"/>
        </linearGradient>
        <path id="aQ" d="M5.876 300.422h-7.66a9.498 9.498 0 0 1-2.452-.32l.032-.005c.67-.117 1.358-.178 2.054-.178h7.666c.383 0 .749.063 1.082.18.105.037.207.079.305.126a2.722 2.722 0 0 1-1.027.197"/>
        <linearGradient id="aR" x1="1694.766%" x2="1694.766%" y1="-20949.4%" y2="30869.5%">
            <stop offset="0%" stop-color="#FFFFFE"/>
            <stop offset="100%" stop-color="#FFFFFE"/>
        </linearGradient>
        <path id="aT" d="M15.386 300.369c.44-.07.896-.128 1.368-.17.562.077 1.147.127 1.751.149l.608.02h-3.727m8.922-.001c.073-.007.14-.013.199-.02l.026-.003a.68.68 0 0 1 .017.022h-.242"/>
        <linearGradient id="aU" x1="1845.966%" x2="1845.966%" y1="-20993.3%" y2="30825.6%">
            <stop offset="0%" stop-color="#D1DFE2"/>
            <stop offset="85.714%" stop-color="#935770"/>
            <stop offset="93.651%" stop-color="#802550"/>
            <stop offset="100%" stop-color="#711D41"/>
        </linearGradient>
        <path id="aW" d="M22.29 300.428c-.782 0-1.81-.017-3.177-.06l-.608-.02a17.651 17.651 0 0 1-1.75-.149c.452-.04.919-.068 1.398-.082l.612-.016c1.367-.033 2.394-.046 3.175-.046 1.025 0 1.626.022 2.017.048.074.004.14.01.2.014.141.012.271.097.376.227l-.026.004-.2.019c-.39.032-.991.061-2.017.061"/>
        <linearGradient id="aX" x1="2157.155%" x2="2157.155%" y1="-20970.7%" y2="30848.2%">
            <stop offset="0%" stop-color="#711D41"/>
            <stop offset="100%" stop-color="#711D41"/>
        </linearGradient>
        <path id="aZ" d="M45.222 300.361a42.29 42.29 0 0 1 1.853-.155l.211.018c.294.058.593.103.895.136l-2.959.001"/>
        <linearGradient id="ba" x1="4709.616%" x2="4709.616%" y1="-20994.4%" y2="30824.5%">
            <stop offset="0%" stop-color="#D1DFE2"/>
            <stop offset="85.714%" stop-color="#935770"/>
            <stop offset="93.651%" stop-color="#802550"/>
            <stop offset="100%" stop-color="#711D41"/>
        </linearGradient>
        <path id="bc" d="M59.036 300.422h-2.708c1.138-.012 1.8-.043 2.24-.074.106-.008.207-.028.301-.057a.713.713 0 0 1 .167.131m-5.001 0h-4.699a10.808 10.808 0 0 1-2.05-.198c.75.063 1.525.105 2.325.124 1.808.042 3.256.065 4.424.074"/>
        <linearGradient id="bd" x1="1168.147%" x2="1168.147%" y1="-20997.2%" y2="30821.7%">
            <stop offset="0%" stop-color="#FFFFFE"/>
            <stop offset="84.127%" stop-color="#A57081"/>
            <stop offset="93.651%" stop-color="#872953"/>
            <stop offset="100%" stop-color="#711D41"/>
        </linearGradient>
        <path id="bf" d="M55.26 300.428c-.37 0-.778-.002-1.225-.006a288.513 288.513 0 0 1-4.424-.074 38.728 38.728 0 0 1-2.536-.142c.71-.045 1.446-.075 2.202-.089 2.504-.045 4.319-.062 5.653-.062 1.821 0 2.748.031 3.31.062.246.014.467.078.63.174-.095.03-.196.049-.302.057-.44.03-1.102.062-2.24.074-.317.004-.671.006-1.069.006"/>
        <linearGradient id="bg" x1="1165.578%" x2="1165.578%" y1="-20970.7%" y2="30848.2%">
            <stop offset="0%" stop-color="#711D41"/>
            <stop offset="100%" stop-color="#711D41"/>
        </linearGradient>
        <path id="bi" d="M420.903 300.262a7.12 7.12 0 0 1 .65-.043s.051 0 .147.008c.045.01.134.022.249.034h-1.046"/>
        <linearGradient id="bj" x1="-22595.854%" x2="-22595.854%" y1="-20996.5%" y2="30822.4%">
            <stop offset="0%" stop-color="#D1DFE2"/>
            <stop offset="100%" stop-color="#F4B727"/>
        </linearGradient>
        <path id="bl" d="M422.057 300.27a5.272 5.272 0 0 1 0 0"/>
        <linearGradient id="bm" x1="-37182.2%" x2="-37182.2%" y1="-20997.7%" y2="30821.2%">
            <stop offset="0%" stop-color="#E46F6E"/>
            <stop offset="100%" stop-color="#F4B727"/>
        </linearGradient>
        <path id="bo" d="M423.027 300.26c.102-.008.204-.02.312-.035.09.01.179.022.268.036h-.58m-1.327-.034c-.096-.008-.147-.008-.147-.008l.026-.004.07.003.051.01"/>
        <linearGradient id="bp" x1="-11540.124%" x2="-11540.124%" y1="-20995.8%" y2="30823.1%">
            <stop offset="0%" stop-color="#D1DFE2"/>
            <stop offset="100%" stop-color="#E46F6E"/>
        </linearGradient>
        <path id="br" d="M421.649 300.218l-.07-.003a3.63 3.63 0 0 1 .268-.03c.057-.004.127-.009.197-.012-.248.044-.395.045-.395.045"/>
        <linearGradient id="bs" x1="-37163.2%" x2="-37163.2%" y1="-20989.2%" y2="30829.7%">
            <stop offset="0%" stop-color="#F4B727"/>
            <stop offset="100%" stop-color="#E46F6E"/>
        </linearGradient>
        <path id="bu" d="M422.472 300.286c-.16 0-.3-.006-.415-.015a5.272 5.272 0 0 0-.357-.044l-.051-.01s.147 0 .395-.044a6.946 6.946 0 0 1 .88.012c.135.01.275.022.415.04a6.623 6.623 0 0 1-.867.061"/>
        <linearGradient id="bv" x1="-14028%" x2="-14028%" y1="-20988%" y2="30830.9%">
            <stop offset="0%" stop-color="#E46F6E"/>
            <stop offset="100%" stop-color="#E46F6E"/>
        </linearGradient>
        <path id="bx" d="M447.162 300.255c.09-.016.178-.03.274-.044l.121.024c.039.007.077.014.122.02h-.517"/>
        <linearGradient id="by" x1="-41174.2%" x2="-41174.2%" y1="-20995.2%" y2="30823.7%">
            <stop offset="0%" stop-color="#D1DFE2"/>
            <stop offset="100%" stop-color="#F4B727"/>
        </linearGradient>
        <path id="bA" d="M447.819 300.271a2.51 2.51 0 0 1-.262-.036s.077.011.21.025l.052.011m-.262-.036l-.12-.024.037-.006a3.536 3.536 0 0 1 .358-.034l-.02.005c-.216.015-.338.03-.338.03s.045.005.128.02l-.045.009"/>
        <linearGradient id="bB" x1="-41217.2%" x2="-41217.2%" y1="-20988.9%" y2="30830%">
            <stop offset="0%" stop-color="#F4B727"/>
            <stop offset="100%" stop-color="#F4B727"/>
        </linearGradient>
        <path id="bD" d="M447.768 300.26c-.134-.014-.21-.025-.21-.025l.044-.008c.045.008.102.019.166.033m.044-.084l.02-.005c.044-.003.095-.004.14-.005l-.16.01"/>
        <linearGradient id="bE" x1="-41236.2%" x2="-41236.2%" y1="-20988.1%" y2="30830.8%">
            <stop offset="0%" stop-color="#E46F6E"/>
            <stop offset="100%" stop-color="#F4B727"/>
        </linearGradient>
        <path id="bG" d="M449.943 300.254a8.69 8.69 0 0 0 .255-.03c.083.008.166.018.249.03h-.504"/>
        <linearGradient id="bH" x1="-41610.2%" x2="-41610.2%" y1="-20997.1%" y2="30821.8%">
            <stop offset="0%" stop-color="#D1DFE2"/>
            <stop offset="100%" stop-color="#E46F6E"/>
        </linearGradient>
        <path id="bJ" d="M448.061 300.286a3.213 3.213 0 0 1-.242-.015 1.282 1.282 0 0 1-.051-.01c.076.008.178.017.293.025m-.459-.06c-.083-.015-.128-.02-.128-.02s.122-.015.338-.03c-.095.026-.172.042-.21.05"/>
        <linearGradient id="bK" x1="-41223.2%" x2="-41223.2%" y1="-20989.7%" y2="30829.2%">
            <stop offset="0%" stop-color="#F4B727"/>
            <stop offset="100%" stop-color="#E46F6E"/>
        </linearGradient>
        <path id="bM" d="M448.82 300.312a10.616 10.616 0 0 1-1.052-.052 3.901 3.901 0 0 0-.166-.033c.038-.009.115-.025.21-.05l.16-.011a13.923 13.923 0 0 1 2.226.057 10.678 10.678 0 0 1-1.378.089"/>
        <linearGradient id="bN" x1="-10133.464%" x2="-10133.464%" y1="-20984.8%" y2="30834.1%">
            <stop offset="0%" stop-color="#E46F6E"/>
            <stop offset="100%" stop-color="#E46F6E"/>
        </linearGradient>
        <path id="bP" d="M145.947 300.334a.577.577 0 0 1 .05-.206.547.547 0 0 1 .215-.186c.007.15.021.303.04.347l.017.045h-.322m19.124-.005l.068-.039.073.04h-.141"/>
        <linearGradient id="bQ" x1="200.344%" x2="200.344%" y1="-20953%" y2="30865.9%">
            <stop offset="0%" stop-color="#D1DFE2"/>
            <stop offset="82.54%" stop-color="#615F82"/>
            <stop offset="90.476%" stop-color="#392A5D"/>
            <stop offset="100%" stop-color="#2C2246"/>
        </linearGradient>
        <path id="bS" d="M156.24 301.535c-4.134 0-9.53-.198-9.97-1.2a.432.432 0 0 1-.017-.046c-.02-.044-.034-.198-.04-.347 1.118-.615 5.864-.748 9.63-.751h.29c1.615.001 3.022.026 3.843.045 1.743.04 3.564.334 4.834.896.114.05.224.103.329.158l-.068.04c-1.269.719-3.089 1.096-4.831 1.147-.847.025-2.32.058-4 .058"/>
        <linearGradient id="bT" x1="202.524%" x2="202.524%" y1="-5667.9%" y2="8428.645%">
            <stop offset="0%" stop-color="#2C2246"/>
            <stop offset="100%" stop-color="#2C2246"/>
        </linearGradient>
        <path id="bV" d="M185.535 300.324c.11-.025.22-.05.33-.078.116.025.23.05.344.077l-.674.001"/>
        <linearGradient id="bW" x1="-147.02%" x2="-147.02%" y1="-21000.7%" y2="30818.2%">
            <stop offset="0%" stop-color="#D1DFE2"/>
            <stop offset="82.54%" stop-color="#615F82"/>
            <stop offset="90.476%" stop-color="#392A5D"/>
            <stop offset="100%" stop-color="#2C2246"/>
        </linearGradient>
        <path id="bY" d="M168.39 300.611a.547.547 0 0 1-.2-.19.492.492 0 0 1-.023-.092h.231c-.01.111-.014.22-.009.282"/>
        <linearGradient id="bZ" x1="2567.6%" x2="2567.6%" y1="-21013.6%" y2="30805.3%">
            <stop offset="0%" stop-color="#FFFFFE"/>
            <stop offset="82.54%" stop-color="#78708D"/>
            <stop offset="92.063%" stop-color="#3C2A5D"/>
            <stop offset="93.651%" stop-color="#372A59"/>
            <stop offset="100%" stop-color="#2C2246"/>
        </linearGradient>
        <path id="cb" d="M168.167 300.329a2.503 2.503 0 0 1-.028-.196.823.823 0 0 1-.003-.249c.038-.198.371-.339.915-.434-.333.185-.545.357-.602.51a2.41 2.41 0 0 0-.05.369h-.232"/>
        <linearGradient id="cc" x1="1777.972%" x2="1777.972%" y1="-15149.347%" y2="22455.08%">
            <stop offset="0%" stop-color="#D1DFE2"/>
            <stop offset="82.54%" stop-color="#615F82"/>
            <stop offset="90.476%" stop-color="#392A5D"/>
            <stop offset="100%" stop-color="#2C2246"/>
        </linearGradient>
        <path id="ce" d="M172.31 301.425c-.71 0-1.364-.02-1.924-.068-.942-.27-1.658-.526-1.997-.746-.005-.061 0-.17.01-.282a2.41 2.41 0 0 1 .05-.37c.057-.152.27-.324.602-.51.706-.124 1.768-.172 3.003-.172 3.655 0 8.83.425 10.813.574.82.062 1.646.152 2.42.285.196.034.39.07.578.11-.11.028-.22.053-.33.078-.773.17-1.598.286-2.418.365-1.98.191-7.154.736-10.807.736"/>
        <linearGradient id="cf" x1="92.439%" x2="92.439%" y1="-6190.232%" y2="9195.428%">
            <stop offset="0%" stop-color="#2C2246"/>
            <stop offset="100%" stop-color="#2C2246"/>
        </linearGradient>
        <path id="ch" d="M370.33 300.275a.879.879 0 0 1 .166-.1c.038.037.089.07.133.1h-.3m1.385 0l.019-.012.02.011h-.04"/>
        <linearGradient id="ci" x1="-13061.973%" x2="-13061.973%" y1="-20989.6%" y2="30829.3%">
            <stop offset="0%" stop-color="#D1DFE2"/>
            <stop offset="100%" stop-color="#E2EDF1"/>
        </linearGradient>
        <path id="ck" d="M371.172 300.427c-.198 0-.383-.054-.543-.152-.044-.03-.095-.063-.133-.1.159-.077.344-.12.542-.12l.172.01c.134.019.261.056.376.11a.993.993 0 0 1 .147.088l-.02.011a1.012 1.012 0 0 1-.37.14l-.171.013"/>
        <linearGradient id="cl" x1="-15027.938%" x2="-15027.938%" y1="-20970.7%" y2="30848.2%">
            <stop offset="0%" stop-color="#E2EDF1"/>
            <stop offset="100%" stop-color="#E2EDF1"/>
        </linearGradient>
        <path id="cn" d="M296.91 300.294c.065-.05.14-.096.221-.132.06.05.117.094.187.132h-.408m1.429 0a.088.088 0 0 1 .025-.016l.02.016h-.045"/>
        <linearGradient id="co" x1="-7626.494%" x2="-7626.494%" y1="-20987.5%" y2="30831.4%">
            <stop offset="0%" stop-color="#D1DFE2"/>
            <stop offset="100%" stop-color="#E2EDF1"/>
        </linearGradient>
        <path id="cq" d="M297.828 300.427l-.172-.013a1.05 1.05 0 0 1-.525-.252l.007-.002c.104-.046.218-.078.34-.094l.172-.011c.178 0 .357.038.51.105.07.032.14.072.204.118a1.057 1.057 0 0 1-.536.15"/>
        <linearGradient id="cr" x1="-9131.868%" x2="-9131.868%" y1="-20970.7%" y2="30848.2%">
            <stop offset="0%" stop-color="#E2EDF1"/>
            <stop offset="100%" stop-color="#E2EDF1"/>
        </linearGradient>
        <path id="ct" d="M314.45 300.29a.893.893 0 0 1 .204-.125c.058.047.115.089.172.125h-.376m1.416-.001c.006-.004.02-.01.026-.015l.019.015h-.045"/>
        <linearGradient id="cu" x1="-8893.974%" x2="-8893.974%" y1="-20988%" y2="30830.9%">
            <stop offset="0%" stop-color="#D1DFE2"/>
            <stop offset="100%" stop-color="#E2EDF1"/>
        </linearGradient>
        <path id="cw" d="M315.35 300.427l-.166-.013a1.1 1.1 0 0 1-.358-.124 1.712 1.712 0 0 1-.172-.125c.007 0 .007-.002.007-.002a1.26 1.26 0 0 1 .35-.097l.173-.011c.185 0 .363.039.516.108.07.031.134.069.192.111-.007.005-.02.01-.026.015a1.033 1.033 0 0 1-.517.138"/>
        <linearGradient id="cx" x1="-10515.051%" x2="-10515.051%" y1="-20970.7%" y2="30848.2%">
            <stop offset="0%" stop-color="#E2EDF1"/>
            <stop offset="100%" stop-color="#E2EDF1"/>
        </linearGradient>
        <path id="cz" d="M387.698 300.27c.07-.03.14-.054.21-.072.07.032.147.057.223.072h-.433m.848 0c.038-.008.076-.018.115-.03.025.009.044.019.07.03h-.185"/>
        <linearGradient id="cA" x1="-19661.235%" x2="-19661.235%" y1="-20993.1%" y2="30825.8%">
            <stop offset="0%" stop-color="#D1DFE2"/>
            <stop offset="100%" stop-color="#E2EDF1"/>
        </linearGradient>
        <path id="cC" d="M388.335 300.292a1.037 1.037 0 0 1-.427-.094 1.274 1.274 0 0 1 .306-.037l.166.01.045.007c.083.013.16.034.236.062a1.087 1.087 0 0 1-.115.03l-.045.008-.166.014"/>
        <linearGradient id="cD" x1="-27020.508%" x2="-27020.508%" y1="-20987.4%" y2="30831.5%">
            <stop offset="0%" stop-color="#E2EDF1"/>
            <stop offset="100%" stop-color="#E2EDF1"/>
        </linearGradient>
        <path id="cF" d="M533.957 300.055h25.66v.372h-25.66z"/>
        <linearGradient id="cG" x1="-1361.725%" x2="-1361.725%" y1="-20970.7%" y2="30848.2%">
            <stop offset="0%" stop-color="#E2EDF1"/>
            <stop offset="100%" stop-color="#E2EDF1"/>
        </linearGradient>
        <path id="cI" d="M533.925 300.055h.032v.372h-.032z"/>
        <linearGradient id="cJ" x1="-54777.2%" x2="-54777.2%" y1="-20970.7%" y2="30848.2%">
            <stop offset="0%" stop-color="#FFFFFE"/>
            <stop offset="100%" stop-color="#E2EDF1"/>
        </linearGradient>
        <path id="cL" d="M477.414 300.055h.064v.191h-.064z"/>
        <linearGradient id="cM" x1="-45917.2%" x2="-45917.2%" y1="-20970.7%" y2="30848.2%">
            <stop offset="0%" stop-color="#D1DFE2"/>
            <stop offset="100%" stop-color="#FFFFFE"/>
        </linearGradient>
        <path id="cO" d="M477.478 300.055h56.447v.372h-56.447z"/>
        <linearGradient id="cP" x1="-518.951%" x2="-518.951%" y1="-20970.7%" y2="30848.2%">
            <stop offset="0%" stop-color="#FFFFFE"/>
            <stop offset="100%" stop-color="#FFFFFE"/>
        </linearGradient>
    </defs>
    <g fill="none" fill-rule="evenodd" transform="translate(-22 -1)">
        <ellipse cx="319.346" cy="302.5" fill="url(#a)" rx="319.346" ry="13.5" style="mix-blend-mode:multiply"/>
        <g transform="translate(27.5 .5)">
            <path fill="#F1F5F7" d="M81.802 242.43h379.494V.533H81.802z"/>
            <path fill="#FFFFFE" d="M181.232 48.84h264.323V27.457H99.203v199.854h82.03V48.84"/>
            <path fill="#E1EDF1" d="M146.074 209.053h19.464v-2.48h-19.464zM146.074 214.007h19.464v-2.48h-19.464zM146.074 218.961h19.464v-2.48h-19.464z"/>
            <path fill="#1E2220" d="M81.802 19.172h379.494V.533H81.802z"/>
            <path fill="#FFFFFE" d="M99.203 9.646h4.971v-4.97h-4.971zM106.245 9.646h4.972v-4.97h-4.972zM99.203 16.687h4.971v-4.97h-4.971zM106.245 16.687h4.972v-4.97h-4.972z"/>
            <path fill="#277CEC" d="M113.31 82.16h54.788v-7.93H113.31z"/>
            <path fill="#1E2220" d="M136.74 82.16h7.929v-7.93h-7.93z"/>
            <path fill="#E1EDF1" d="M115.833 62.338h4.325v-4.324h-4.325zM123.402 62.338h4.325v-4.324h-4.325zM130.972 62.338h4.325v-4.324h-4.325zM138.541 62.338h4.326v-4.324h-4.326zM146.11 62.338h4.326v-4.324h-4.325zM153.68 62.338h4.326v-4.324h-4.326zM161.25 62.338h4.325v-4.324h-4.326zM115.833 52.788h4.325v-4.324h-4.325zM123.402 52.788h4.325v-4.324h-4.325zM130.972 52.788h4.325v-4.324h-4.325zM138.541 52.788h4.326v-4.324h-4.326zM146.11 52.788h4.326v-4.324h-4.325zM153.68 52.788h4.326v-4.324h-4.326zM161.25 52.788h4.325v-4.324h-4.326zM115.833 71.348h4.325v-4.325h-4.325zM123.402 71.348h4.325v-4.325h-4.325zM130.972 71.348h4.325v-4.325h-4.325zM138.541 71.348h4.326v-4.325h-4.326zM146.11 71.348h4.326v-4.325h-4.325zM153.68 71.348h4.326v-4.325h-4.326zM161.25 71.348h4.325v-4.325h-4.326zM115.833 80.357h4.325v-4.324h-4.325zM123.402 80.357h4.325v-4.324h-4.325zM130.972 80.357h4.325v-4.324h-4.325zM138.541 80.357h4.326v-4.324h-4.326zM146.11 80.357h4.326v-4.324h-4.325zM153.68 80.357h4.326v-4.324h-4.326zM161.25 80.357h4.325v-4.324h-4.326zM115.833 89.367h4.325v-4.325h-4.325zM123.402 89.367h4.325v-4.325h-4.325zM130.972 89.367h4.325v-4.325h-4.325zM138.541 89.367h4.326v-4.325h-4.326zM146.11 89.367h4.326v-4.325h-4.325zM153.68 89.367h4.326v-4.325h-4.326zM161.25 89.367h4.325v-4.325h-4.326zM115.833 98.376h4.325V94.05h-4.325zM123.402 98.376h4.325V94.05h-4.325zM130.972 98.376h4.325V94.05h-4.325zM138.541 98.376h4.326V94.05h-4.326zM146.11 98.376h4.326V94.05h-4.325zM153.68 98.376h4.326V94.05h-4.326zM161.25 98.376h4.325V94.05h-4.326z"/>
            <path fill="#FFFFFE" d="M194.49 227.311h251.065V54.587H194.49z"/>
            <path fill="#E1EDF1" d="M200.705 65.564h21.498v-4.97h-21.498zM200.705 75.919h21.498v-4.97h-21.498zM200.705 86.274h21.498v-4.97h-21.498zM200.705 96.629h21.498v-4.97h-21.498zM200.705 106.985h21.498v-4.97h-21.498zM200.705 117.34h21.498v-4.97h-21.498zM200.705 127.695h21.498v-4.97h-21.498zM200.705 138.05h21.498v-4.97h-21.498zM200.705 148.405h21.498v-4.97h-21.498zM200.705 158.76h21.498v-4.97h-21.498zM200.705 169.116h21.498v-4.971h-21.498zM200.705 179.47h21.498v-4.97h-21.498zM200.705 189.826h21.498v-4.97h-21.498zM200.705 200.18h21.498v-4.97h-21.498zM200.705 210.536h21.498v-4.97h-21.498zM200.705 220.892h21.498v-4.971h-21.498zM230.97 42.515h25.999v-8.284H230.97zM261.368 42.515h25.999v-8.284h-25.999zM291.767 42.515h26v-8.284h-26zM322.168 42.515h25.997v-8.284h-25.997zM352.566 42.515h25.998v-8.284h-25.998zM382.965 42.515h25.998v-8.284h-25.998zM413.364 42.515h25.997v-8.284h-25.997zM125.854 149.91a7.099 7.099 0 1 1 7.099-7.097 7.098 7.098 0 0 1-7.099 7.098zm0-16.365c-5.12 0-9.27 4.15-9.27 9.268 0 5.119 4.15 9.268 9.27 9.268 5.12 0 9.27-4.15 9.27-9.268s-4.15-9.268-9.27-9.268zM125.854 184.855a7.098 7.098 0 0 1 0-14.195 7.098 7.098 0 1 1 0 14.195zm0-16.365c-5.12 0-9.27 4.15-9.27 9.267 0 5.119 4.15 9.269 9.27 9.269 5.12 0 9.27-4.15 9.27-9.269 0-5.117-4.15-9.267-9.27-9.267zM115.218 42.515h50.357v-8.284h-50.357zM115.218 121.482h50.357v-8.284h-50.357z"/>
            <path fill="#277CEC" d="M133.796 147.594a9.22 9.22 0 0 0 1.328-4.78 9.253 9.253 0 0 0-3.757-7.451l-1.295 1.75a7.078 7.078 0 0 1 2.881 5.7c0 1.34-.378 2.588-1.024 3.658l1.867 1.123"/>
            <path fill="#B1CCFB" d="M125.854 187.026c2.501 0 4.768-.992 6.436-2.602l-1.51-1.563a7.07 7.07 0 0 1-4.926 1.994c-3.92 0-7.1-3.177-7.1-7.098 0-3.639 2.742-6.634 6.272-7.044l-.253-2.159c-4.61.536-8.19 4.451-8.19 9.203 0 5.119 4.151 9.269 9.271 9.269"/>
            <path fill="#E1EDF1" d="M146.074 139.099h19.464v-2.48h-19.464zM146.074 144.054h19.464v-2.48h-19.464zM146.074 149.008h19.464v-2.48h-19.464zM146.074 174.076h19.464v-2.48h-19.464z"/>
            <path fill="#79A0EE" d="M230.97 130.557h25.999V58.16H230.97z"/>
            <path fill="#B1CCFB" d="M322.168 68.067h25.997V58.16h-25.997zM352.566 113.832h25.998V58.16h-25.998z"/>
            <path fill="#79A0EE" d="M261.368 151.39h25.999v-39.02h-25.999z"/>
            <path fill="#AFC4D5" d="M230.97 161.807h25.999v-31.25H230.97z"/>
            <path fill="#D2DBEB" d="M230.97 213.85h25.999v-52.043H230.97zM261.368 162.329h25.999V151.39h-25.999z"/>
            <path fill="#B1CCFB" d="M413.364 68.577h25.997V58.16h-25.997z"/>
            <path fill="#E1EDF1" d="M146.074 179.03h19.464v-2.48h-19.464zM146.074 183.985h19.464v-2.48h-19.464z"/>
            <path fill="#D3E3E9" d="M221.435 242.43h74.481v-15.119h-74.481z"/>
            <path fill="#E2EDF1" d="M295.916 227.311h-74.481v-6.42h.768v-4.97h-.768v-5.385h.768v-.828h8.767v4.142h25.999v-4.142h38.947v17.603"/>
            <path fill="#C6D9E2" d="M221.435 210.536h.768v-.828h-.768zM221.435 220.892h.768v-4.971h-.768z"/>
            <path fill="#E4AD2C" d="M230.97 213.85h25.999v-4.142H230.97z"/>
            <path fill="#FFFFFE" d="M207.763 275.566h76.644v-76.628h-76.644z"/>
            <path fill="#277CEC" d="M261.621 254.028h9.943v-9.94h-9.943zM241.321 266.04h9.943v-9.941h-9.943z"/>
            <path fill="#79A0EE" d="M252.921 239.117h17.4v-17.398h-17.4z"/>
            <path fill="#D2DBEB" d="M224.75 242.43h17.4v-17.396h-17.4z"/>
            <path fill="#1E2220" d="M221.435 250.714h4.971v-4.97h-4.971zM245.878 248.229h4.972v-4.97h-4.972z"/>
            <path fill="#79A0EE" d="M269.078 268.525h4.972v-4.97h-4.972zM231.378 261.07h4.971v-4.971h-4.97z"/>
            <path fill="#2233A3" d="M274.05 218.82h4.972v-4.97h-4.972z"/>
            <path fill="#E1EDF1" d="M214.392 213.85h52.2v-8.284h-52.2z"/>
            <path fill="#D3E3E9" d="M81.86 140.95h17.343V60.592H81.86z"/>
            <path fill="#E2EDF1" d="M99.203 140.95h6.771V60.592h-6.771z"/>
            <path fill="#1E2220" d="M10.81 292.065c-.094.626-1.447 2.854-.42 4.802 1.026 1.95 4.15 3.341 8.115 3.48 3.965.14 5.349.07 6.002 0 .653-.069 1.082-2.155-.286-2.735-1.368-.58-6.003-4.012-6.101-5.543-.098-1.532-7.31-.004-7.31-.004M38.123 292.065c-.139.626-2.157 2.854-.626 4.802 1.531 1.95 6.196 3.341 12.114 3.48 5.917.14 7.983.07 8.957 0 .975-.069 1.578-1.16-.464-1.74-2.042-.58-12.125-4.663-12.27-6.194-.145-1.532-7.71-.348-7.71-.348"/>
            <path fill="#277CEC" d="M6.544 187.026s7.19 33.556 8.204 49.518c1.013 15.962-4.882 55.523-4.882 55.523l9.11-.002s10.912-38.264 12.112-51.803c1.2-13.54-2.568-45.052-2.568-45.052l-21.976-8.184"/>
            <path fill="#277CEC" d="M20.531 187.026s9.847 49.06 10.86 65.023c1.014 15.962 6 40.02 6 40.02l9.112-.003s.975-39.615 2.176-53.155c1.2-13.539-6.706-47.912-6.706-47.912l-21.442-3.973"/>
            <path fill="#FFFFFE" d="M14.753 123.875h76.645V47.247H14.753z"/>
            <path fill="#E1EDF1" d="M21.685 83.076H50.27v-28.58H21.685zM54.828 83.076h28.587v-28.58H54.828zM21.685 116.21H50.27V87.63H21.685zM54.828 116.21h28.587V87.63H54.828z"/>
            <path fill="#FFFFFE" d="M26.922 78.313h18.112V72.1H26.922zM60.066 78.313h18.111V72.1H60.066zM26.922 110.884h18.112v-6.213H26.922zM60.066 110.884h18.111v-6.213H60.066z"/>
            <path fill="#AFC4D5" d="M21.788 58.83h4.325v-4.323h-4.325z"/>
            <path fill="#2C2246" d="M54.828 58.83h4.326v-4.323h-4.326z"/>
            <path fill="#277CEC" d="M21.685 91.954h4.326V87.63h-4.326z"/>
            <path fill="#AFC4D5" d="M54.725 91.954h4.325V87.63h-4.325z"/>
            <path fill="#B1CCFB" d="M14.753 63.903s.258 21.097 2.07 36.624c1.423 12.178 5.481 17.779 9.188 20.173 3.706 2.393 15.48 8.228 21.56 9.857 6.081 1.629 11.17 24.979 16.739 22.46 5.57-2.518 10.802-26.61 10.802-26.61h5.57s-3.934 38.81-16.187 41.926c-12.252 3.115-17.202-5.407-17.202-5.407l-2.247 35.849s-4.195 4.753-15.992.513c-9.677-3.477-14.81 3.066-24.652-4.08 0 0 1.446-34.593 2.357-47.614.91-13.02-7.119-34.298-5.581-47.915 1.315-11.655 9.259-35.776 9.259-35.776h4.316"/>
            <path fill="#F4D2BF" d="M14.753 58.549s1.508-3.369 2.53-2.953c1.02.416-1.138 3.419-1.265 5.164-.128 1.747-1.265 3.143-1.265 3.143h-4.316s-1.137-6.767-.395-8.307 4.71-3.264 4.71-3.264v6.217M75.112 126.407c-.246-1.02-2.994-.84-3.644-2.532l3.435-.008s.747-1.971 2.088-4.142c1.36-2.198 5.395-3.515 4.811.392-.439 2.931-1.12 6.29-1.12 6.29h-5.57"/>
            <path fill="#1E2220" d="M23.848 118.931c-8.608 6.641-16.86 25.036-17.089 28.663-.23 3.627-2.692 22.66-2.834 32.803-.104 7.504 4.825 13.99 13.935 13.99 5.574 0 31.64 3.792 29.59-8.353-.92-5.446-.157-23.108-.157-23.108s-6.155-9.002-4.02-18.561c2.135-9.56 4.932-13.558 4.932-13.558l-24.357-11.876"/>
            <path fill="#79A0EE" d="M26.922 120.43c-.08 5.652 6.233 9.469 12.452 9.695 6.22.226 5.66-.864 5.66-.864s-5.428-2.483-5.289-4.385c.14-1.902.604-2.924.604-2.924l-6.405-3.021s-1.995 2.79-3.434 2.697c-1.44-.093-3.588-1.197-3.588-1.197"/>
            <path fill="#F4D2BF" d="M40.349 121.952c2.546-1.47 7.524-2.17 7.657-5.742.199-5.326-2.428-13.16-4.91-13.438-2.484-.278-9.616 3.937-9.407 7.487.209 3.55.255 8.672.255 8.672l6.405 3.021"/>
            <path fill="#277CEC" d="M16.726 137.404c-5.297 6.458 1.063 10.766 7.122 10.024 6.058-.743 7.868 8.226 12.741 5.29 4.875-2.937 4.456-6.59 2.6-12.436-1.856-5.847-3.147-8.394-1.393-13.55 1.755-5.156 4.848-6.443 5.295-10.859 0 0-1.674-1.004-1.176-2.52.5-1.516 1.967-2.192 1.967-2.192s3.383-3.38 2.895-5.426c-.487-2.047-.364-5.124-3.554-5.284 0 0-.819-2.244-3.274-1.89-2.455.356-5.309-1.567-10.414 6.11-5.105 7.676.186 8.846-2.135 12.948-2.32 4.102-4.641.946-7.148 6.144-2.506 5.197.279 9.001-3.526 13.641"/>
            <path fill="#F8A786" d="M416.795 63.213l-2.117-3.612s-2.743-5.369-6.379-3.49c-3.642 1.88-2.85 7.852-.306 7.077 3.215-.979 4.344 1.029 4.344 1.029s.472.874 1.23 2.292c2.635 4.893 3.228-3.296 3.228-3.296"/>
            <path fill="#F8A786" d="M415.539 61.07c-.562-2.53-.995-6.134-1.544-6.11-2.385.098-.287 4.773-.918 6.168-.632 1.396.93.626.93.626l1.532-.683"/>
            <path fill="#79A0EE" d="M384.623 84.34h25.998V58.16h-25.998z"/>
            <path fill="#F8A786" d="M392.775 74.795c-.121-2.867 1.23-4.345 1.173-5.828-.057-1.483-1.033.418-1.403 1.14-.376.72-.172-2.6-1.225-4.336-1.058-1.736-3.814.175-3.693 3.074.122 2.9.58 4.142.906 5.368.325 1.226.325 2.13.325 2.13l3.917-1.548"/>
            <path fill="#1E2220" d="M460.205 170.798c-.637 6.71-6.652 55.358-7.016 60.943-.6 9.108 5.958 51.668 5.958 51.668-.6 1.65-3.598 3.21-5.454 1.477 0 0-16.315-52.8-15.678-56.754 1.085-6.709-.937-53.023-.937-53.023l7.277-9.214 15.85 4.903"/>
            <path fill="#1E2220" d="M424.36 168.96c-6.812 19.532.74 50.309 1.02 72.503.064 5.299 6.544 44.154 6.544 44.154s4 3.416 4.975-2.525c-1.224-8.57.727-33.693 1.729-41.029 3.38-24.697 12.4-65.063 12.4-65.063l-26.668-8.04"/>
            <path fill="#277CEC" d="M422.23 173.15l-2.36 15.338s12.15 1.646 22.98.452 19.224-10.855 19.224-10.855l-2.168-12.45-37.677 7.514"/>
            <path fill="#B1CCFB" d="M459.198 164.225c-8.509-14.039-2.928-9.477-6.27-28.852-4.382-25.426-15.716-18.794-15.716-18.794-3.017 2.418.619 1.22-5.25 5.468-1.696.627-3.903.377-6.256-.337-5.875-1.78-11.213 3.364-7.182 13.545 2.455 6.208 2.232 15.567.44 26.05-2.953 17.244-.721 17.363 3.208 19.578 12.686 7.147 45.183-3.201 37.026-16.658"/>
            <path fill="#277CEC" d="M424.883 121.443c2.232 5.065-.9 38.927-4.733 30.38 0 0-2.921-15.84-6.793-21.497-3.871-5.659-15.952-15.028-19.549-19.653-3.604-4.627-5.677-35.08-5.677-35.08l5.288-1.13s7.24 27.276 9 29.698c1.76 2.423 22.464 17.282 22.464 17.282M435.547 121.423c5.51-4.1 14.555 6.823 17.776 16.414 0 0 .396-13.98-3.208-19.916-3.597-5.936-16.698-29.789-17.693-31.346-1.002-1.558-15.57-24.462-15.57-24.462l-4.962 4.132L426.158 96.6l9.39 24.823"/>
            <path fill="#F8A786" d="M439.17 100.619c-11.436 4.206-11.27 7.167-10.996 9.604.274 2.438 1.837 2.617 2.526 5.333.695 2.716-.21 4.32-1.346 6.958-.791 1.826 3.33 1.77 5.983.148 2.647-1.622 3.565-1.881 2.678-6.199-.88-4.317 3.61-4.899 4.293-10.021.676-5.122-3.138-5.823-3.138-5.823"/>
            <path fill="#1E2220" d="M437.977 99.848c-2.813.601-1.384 8.981-1.843 9.226 0 0 2.5.174 1.16 1.898-1.345 1.726-2.531.364-2.531.364s-.434 2.265 1.129 3.288c1.562 1.022 2.015.793 2.015.793s4.076.6 7.099-2.43c3.668-3.67-.816-14.466-7.029-13.139"/>
            <path fill="#1E2220" d="M444.936 108.937c-1.212.258-.938 2.509-.504 2.884.434.375 4.101 2.452 3.89 6.484-.216 4.031-3.1 3.39-3.699 9.818-.6 6.428 16.443 11.877 14.288 17.148-2.156 5.272-8.796 1.345-10.008 6.49-.548 2.308.166 5.115 10.212 3.477 10.045-1.637 11.512-10.964 5.172-20.268-6.346-9.304-2.43-13.851-3.903-18.37-1.473-4.52-9.689-8.894-15.448-7.663"/>
            <path fill="#B1CCFB" d="M436.804 281.988c-1.148-.891-3.661-.974-6.34 2.318-1.933 2.37-5.524 11.011-8.65 12.69-2.149 1.158-3.322 3.122-.165 3.222 3.789.119 16.985-12.22 16.596-14.177-.025-.105-.045-.208-.064-.31-.395-1.844-.759-3.265-1.377-3.743"/>
            <path fill="#B1CCFB" d="M421.649 300.218s2.857.648 5.919-2.027c4.222-3.688 9.382-8.762 9.797-9.346.733-1.039 1.276-1.912.88-2.804-.402-.892-2.577-.966-4.522.781-.612.547-5.052 7.758-8.872 11.765-1.55 1.621-3.202 1.63-3.202 1.63M458.732 282.665c-1.186-.543-2.755-.387-4.669 1.588-2.137 2.203-3.227 11.077-6.965 12.34-2.577.87-3.7 2.867.46 3.642 4.98.927 13.974-10.926 13.056-13.24-.045-.124-.326-3.613-1.882-4.33"/>
            <path fill="#B1CCFB" d="M447.557 300.235s3.464.528 5.766-1.176c2.239-1.663 4.854-4.912 5.81-7.242.747-1.81 1.965-3.465 1.48-4.821-.433-1.236-2.257-1.853-4.196.02-1.671 1.61-1.397 7.65-5.562 11.424-1.69 1.527-3.298 1.795-3.298 1.795"/>
            <path fill="#2233A3" d="M119.267 223.59a7.098 7.098 0 1 1 0-14.194 7.098 7.098 0 1 1 0 14.195zm0-16.364a9.269 9.269 0 1 0 0 18.535 9.269 9.269 0 0 0 0-18.536z"/>
            <path fill="#E1EDF1" d="M122.259 207.722l-.702 2.059a7.095 7.095 0 0 1 4.81 6.713c0 1.404-.414 2.71-1.118 3.811l1.834 1.17a9.221 9.221 0 0 0 1.454-4.981c0-4.072-2.627-7.528-6.278-8.772"/>
            <path fill="#545872" d="M167.085 171.216s-22.434 24.15-42.337 34.594c0 0-2.376.687-3.961 3.234-.731 1.174-3.457 2.722-2.671.524s-.653-1.617-2.167-.743l-3.093 1.782s-1.194-1.781 3.55-4.484c4.743-2.704 5.354-2.344 6.865-3.654 1.156-1.004 18.007-16.781 18.007-16.781l19.096-21.029s6.419 2.428 6.71 6.557"/>
            <path fill="#277CEC" d="M145.231 180.69s4.266-3.507 3.52-8.229c-.745-4.723-1.022-10.184-1.022-10.184s6.848 16.672 8.077 20.774l-2.774 2.823c.734-1.31-5.786-7.491-7.8-5.184"/>
            <path fill="#545872" d="M165.778 290.183l-.127 1.455s-.008 2.125.289 2.88c.298.754.013 1.242.013 1.242l-5.73 3.16-.81-2.46s1.931-1.76 2.014-2.505c.083-.744-.03-2.554-.03-2.554l-.194-4.155 4.575 2.937"/>
            <path fill="#1E2220" d="M160.24 301.477c3.297-.097 6.87-1.361 6.465-3.901-.148-.918-.671-2.742-.671-2.742-1.683 1.975-6.295 1.462-6.516 1.032 0 0-12.995 2.3-13.305 3.758-.016.072.002.579.04.665.416 1.459 11.025 1.276 13.987 1.188"/>
            <path fill="#545872" d="M186.438 287.783s.482 1.863 1.116 3.404c.32.778 1.13 2.71 1.13 2.71l-4.177 6.275s-.857-3.959-1.93-8.469c-.25-1.044-1.368-4.082-1.368-4.082l5.23.162"/>
            <path fill="#1E2220" d="M183.117 300.689c3.192-.309 6.468-1.16 6.376-3.73-.028-.766-.809-3.062-.809-3.062-1.103.68-2.893 1.693-5.261 1.432 0 0-14.431 3.184-14.974 4.63-.028.073-.083.595-.053.688.234 1.557 11.555.347 14.72.042"/>
            <path fill="#B1CCFB" d="M157.566 197.365c-9.519 23.627-9.618 44.656-5.783 56.05 2.55 7.568 9.521 36.002 9.521 36.002s2.96.765 4.475.766c-.19-5.922-2.695-44.05-1.371-50.416 4.425-21.282 7.743-38.182 7.743-38.182l-14.585-4.22"/>
            <path fill="#B1CCFB" d="M192.212 199.008c3.996 12.42-14.156 41.07-13.427 46.215 1.19 8.391 7.863 43.312 7.863 43.312l-4.684 1.217s-17.257-42.932-17.43-46.646c-.29-6.303-.298-26.344 2.412-35.99.908-3.235 3.278-12.8 3.278-12.8s15.447-15.638 21.988 4.692"/>
            <path fill="#277CEC" d="M185.409 213.162s12.288 1.001 9.167-23.954c-2.594-20.753-11.468-28.897-30.124-39.276-17.476-9.723-21.747 3.668-20.56 11.297.12.781 5.5 9.823 9.087 20.785 1.795 5.485 3.697 11.772 3.153 17.102-.634 6.214 25.921 13.176 25.921 13.176l1.823-12.43 1.533 13.3"/>
            <path fill="#545872" d="M128.32 154.842c5.186 10.052 6.917 10.114 9.133 9.583 2.216-.53 2.202-1.992 4.626-2.939 2.424-.948 3.188 1.272 5.75 2.018 1.773.517 2.07-4.841.271-7.098-1.8-2.257-2.384-4.734-6.263-3.429-3.88 1.305-4.688-1.1-9.487-1.137-4.8-.037-4.03 3.002-4.03 3.002"/>
            <path fill="#1E2220" d="M127.538 149.308c-4.233 5.12.58 6.133 2.711 5.753 2.918-.519 6.858.517 6.858.517 2.77-3.99 4.77.617 3.76 1.488-1.515 1.305 5.473-1.48 7.982 4.359 2.509 5.838 7.537 3.744 9.368-1.663 1.66-4.905 3.795-10.541 8.638-8.174 4.844 2.367 13.902 8.878 17.507 13.164 5.908 7.024 8.85 16.866 8.85 16.866.628-3.748 5.17 1.375 6.674-3.677 2.322-7.807-4.297-17.503-12.962-18.767-7.366-1.075-9.021-4.714-13.234-12.764-4.214-8.05-18.846 1.239-23.947-.707-15.435-5.89-16.411-3.403-22.205 3.605"/>
            <path fill="#545872" d="M168.95 178.462c-4.747 15.363-7.509 21.89-21.054 28.11-13.547 6.223-14.899 7.768-17.824 11.15-2.925 3.38-6.777-3.124-5.025-4.553.476-.388 3.194-1.285 5.025-2.49 0 0 2.56-1.626 7.147-4.107 1.705-.921 17.81-10.563 18.63-13.747 1.469-5.706 3.236-17.005 3.236-17.005l6.533-2.62 3.332 5.262"/>
            <path fill="#277CEC" d="M161.914 153.689c-2.83 5.84-2.83 22.13-2.83 22.13s8.208-1.365 9.866 2.643c0 0 3.808-8.942 3.117-13.933-.692-4.991-8.539-14.172-10.153-10.84"/>
            <path fill="#E1EDF1" d="M371.172 300.427l.172-.013a1.04 1.04 0 0 0 .855-1.194L350.69 168.46a1.04 1.04 0 1 0-2.054.337l21.508 130.76c.083.51.53.87 1.027.87M311.937 213.476h17.164v-2.08h-17.164z"/>
            <path fill="#E1EDF1" d="M297.828 300.427c.498 0 .938-.362 1.02-.873l21.228-130.76a1.04 1.04 0 0 0-2.054-.333L296.8 299.222c-.093.567.292 1.101.856 1.193l.172.013M315.35 300.427c.497 0 .943-.362 1.02-.873l21.227-130.76a1.04 1.04 0 0 0-2.054-.333l-21.22 130.76c-.096.567.293 1.101.86 1.193l.166.013M388.335 300.292l.166-.014c.555-.09.938-.614.849-1.172l-21.202-131.263a1.017 1.017 0 0 0-1.167-.847c-.561.09-.937.616-.848 1.173l21.195 131.263c.083.502.516.86 1.007.86"/>
            <path fill="#AEBFC6" d="M321.728 171.872h49.444v-6.488h-49.444z"/>
            <path fill="#E1EDF1" d="M315.35 171.872h29.142v-6.488h-29.143zM352.005 183.881h16.839a1.023 1.023 0 0 0 0-2.045h-16.839c-.568 0-1.02.458-1.02 1.023 0 .564.452 1.022 1.02 1.022M354.984 202.007h16.838a1.02 1.02 0 0 0 1.02-1.023c0-.564-.452-1.022-1.02-1.022h-16.838a1.023 1.023 0 0 0 0 2.045M357.969 220.133h16.838a1.023 1.023 0 0 0 0-2.045H357.97c-.568 0-1.027.458-1.027 1.023 0 .564.459 1.022 1.027 1.022M360.947 238.259h16.839c.568 0 1.02-.458 1.02-1.023 0-.563-.452-1.021-1.02-1.021h-16.839a1.023 1.023 0 0 0 0 2.044M363.932 256.385h16.839a1.023 1.023 0 0 0 0-2.044h-16.839c-.567 0-1.027.458-1.027 1.022 0 .565.46 1.022 1.027 1.022M366.911 274.511h16.839c.567 0 1.02-.458 1.02-1.022a1.02 1.02 0 0 0-1.02-1.022H366.91a1.024 1.024 0 0 0 0 2.044M369.896 292.638h16.839a1.023 1.023 0 0 0 0-2.045h-16.839c-.568 0-1.027.458-1.027 1.022 0 .565.46 1.023 1.027 1.023M533.957 300.427h25.672v-44.66h-25.672z"/>
            <path fill="#FFFFFE" d="M477.478 300.427h56.479v-44.66h-56.48z"/>
            <path fill="#AEBFC6" d="M477.478 274.139h53.124l3.355-18.373h-56.48v18.373"/>
            <path fill="#FFFFFE" d="M533.957 255.766h-56.48l-15.403 13.083h56.48l15.403-13.083"/>
            <path fill="#E1EDF1" d="M575.033 217.67h-56.48l-15.403 38.096h56.48l15.403-38.096"/>
            <path fill="#AEBFC6" d="M533.957 255.766l13.547 34.846h12.125v-34.846h-25.672"/>
            <path fill="#E1EDF1" d="M551.197 278.638h25.673l-17.24-22.872h-25.673l17.24 22.872"/>
            <path fill="#79A0EE" d="M556.274 255.719l5.779-35.988h-25.06l-6.327 36.042 25.608-.054"/>
            <path fill="#1E2220" d="M544.71 255.756l2.616-17.854h-25.06l-3.158 17.884 25.603-.03"/>
            <path fill="#E1EDF1" d="M361.828 165.384h-22.005l-.032-31.692h22.005l.032 31.692"/>
            <path fill="#2C2246" d="M354.359 146.526h3.227v-5.482h-3.227zM341.558 134.14c1.498.697 1.562 1.009 1.537 4.24-.026 3.23-.051 5.682.363 5.756.421.075.345-8.913.868-9.21.523-.297 1.103-.483 1.39.52.287 1.003-.083 2.006.39 2.191.471.186-.058-2.943.828-2.909.893.033 3.31-.062 4.204.68.893.744 1.664.11 1.996-.161.332-.272 4.484-.12 4.816-.763.331-.644.975-.785.975-.785h-17.77s.237.362.403.442"/>
            <path fill="#AEBFC6" d="M357.28 149.86c-.09 0-.172 0-.262-.003-6.282-.153-10.007-4.69-13.955-9.493-.715-.868-1.448-1.766-2.207-2.64a.319.319 0 0 1 .038-.45.315.315 0 0 1 .447.033c.759.88 1.499 1.781 2.22 2.652 3.845 4.687 7.48 9.115 13.47 9.26 2.175.06 3.757-.597 4.694-1.932 1.729-2.457 1.034-6.72-.197-9.89a.321.321 0 0 1 .6-.23c1.281 3.324 1.99 7.824.12 10.487-1.033 1.465-2.704 2.206-4.968 2.206"/>
            <mask id="c" fill="#fff">
                <use xlink:href="#b"/>
            </mask>
            <path d="M360.699 139.278h1.097v-3.295h-1.097z" mask="url(#c)"/>
            <path fill="#2C2246" d="M327.277 163.462c-.415 0-.657-.185-.778-.34-.281-.345-.332-.904-.154-1.709.07-.665.594-2.022 2.067-2.146l6.716-1.877c.58-.133 1.27-.61 1.27-.98l.019-.104 1.103-3.19.606.208-1.09 3.145c-.052.786-1.066 1.381-1.755 1.54l-6.76 1.883c-1.366.121-1.538 1.563-1.544 1.624-.185.843-.051 1.123.019 1.205.032.044.102.103.28.103l13.344-.027v.638l-13.343.027" mask="url(#c)"/>
            <path fill="#2C2246" d="M327.615 160.722l18.19-.079.02 4.7-18.191.079-.02-4.7" mask="url(#c)"/>
            <path fill="#2C2246" d="M328.297 163.073c0 1.297-.3 2.349-.663 2.349-.37 0-.663-1.052-.663-2.35 0-1.296.293-2.348.663-2.348.363 0 .663 1.052.663 2.349M346.488 162.994c0 1.298-.3 2.35-.663 2.35-.37 0-.664-1.052-.664-2.35 0-1.296.294-2.348.664-2.348.363 0 .663 1.052.663 2.348" mask="url(#c)"/>
            <path fill="#AEBFC6" d="M337.82 156.485l4.599-14.194-1.8-.59-4.604 14.18 1.805.604" mask="url(#c)"/>
            <mask id="f" fill="#fff">
                <use xlink:href="#d"/>
            </mask>
            <path fill="url(#e)" d="M450.447 300.253l-.25-.03c.071-.01.148-.02.224-.032l26.993.006v.05l-26.967.006" mask="url(#f)"/>
            <mask id="i" fill="#fff">
                <use xlink:href="#g"/>
            </mask>
            <path fill="url(#h)" d="M450.198 300.223a14.503 14.503 0 0 0-.332-.032h.555c-.076.012-.153.023-.223.032" mask="url(#i)"/>
            <mask id="l" fill="#fff">
                <use xlink:href="#j"/>
            </mask>
            <path fill="url(#k)" d="M6.903 300.225a3.01 3.01 0 0 0-.305-.126h.576c-.088.047-.178.09-.27.126" mask="url(#l)"/>
            <mask id="o" fill="#fff">
                <use xlink:href="#m"/>
            </mask>
            <path fill="url(#n)" d="M16.754 300.2c-.21-.03-.417-.063-.62-.1l2.631.001-.612.016c-.48.014-.946.041-1.399.082" mask="url(#o)"/>
            <mask id="r" fill="#fff">
                <use xlink:href="#p"/>
            </mask>
            <path fill="url(#q)" d="M423.607 300.26a6.419 6.419 0 0 0-.268-.035c.083-.011.166-.025.255-.04l23.74.005.102.021c-.096.014-.185.028-.274.044l-23.555.006" mask="url(#r)"/>
            <mask id="u" fill="#fff">
                <use xlink:href="#s"/>
            </mask>
            <path fill="url(#t)" d="M423.34 300.225c-.141-.018-.281-.03-.415-.04h.67c-.09.015-.173.029-.256.04" mask="url(#u)"/>
            <mask id="x" fill="#fff">
                <use xlink:href="#v"/>
            </mask>
            <path fill="url(#w)" d="M447.436 300.211l-.102-.02h.255l-.115.014-.038.006" mask="url(#x)"/>
            <mask id="A" fill="#fff">
                <use xlink:href="#y"/>
            </mask>
            <path fill="url(#z)" d="M421.579 300.215a6.175 6.175 0 0 1-.408-.03h.676a3.63 3.63 0 0 0-.268.03" mask="url(#A)"/>
            <mask id="D" fill="#fff">
                <use xlink:href="#B"/>
            </mask>
            <path fill="url(#C)" d="M388.66 300.24a1.309 1.309 0 0 0-.235-.062h.382a1.308 1.308 0 0 1-.146.062" mask="url(#D)"/>
            <path fill="url(#E)" d="M370.496 300.175" mask="url(#D)"/>
            <mask id="H" fill="#fff">
                <use xlink:href="#F"/>
            </mask>
            <path fill="url(#G)" d="M315.892 300.274a.969.969 0 0 0-.192-.11h.338a1.08 1.08 0 0 1-.146.11" mask="url(#H)"/>
            <mask id="K" fill="#fff">
                <use xlink:href="#I"/>
            </mask>
            <path fill="url(#J)" d="M298.364 300.278a1.256 1.256 0 0 0-.204-.118h.364a1.05 1.05 0 0 1-.16.118" mask="url(#K)"/>
            <mask id="N" fill="#fff">
                <use xlink:href="#L"/>
            </mask>
            <path fill="url(#M)" d="M314.654 300.165v-.002h.007s0 .002-.007.002" mask="url(#N)"/>
            <mask id="Q" fill="#fff">
                <use xlink:href="#O"/>
            </mask>
            <path fill="url(#P)" d="M185.865 300.246c-.189-.04-.382-.076-.579-.11h.992c-.136.039-.273.076-.413.11" mask="url(#Q)"/>
            <mask id="T" fill="#fff">
                <use xlink:href="#R"/>
            </mask>
            <path fill="url(#S)" d="M297.131 300.162l-.002-.002h.009c-.002 0-.005 0-.007.002" mask="url(#T)"/>
            <mask id="W" fill="#fff">
                <use xlink:href="#U"/>
            </mask>
            <path fill="url(#V)" d="M80.875 300.205c-.139-.033-.279-.063-.42-.09h.822c-.133.032-.267.062-.402.09" mask="url(#W)"/>
            <mask id="Z" fill="#fff">
                <use xlink:href="#X"/>
            </mask>
            <path fill="url(#Y)" d="M24.533 300.344c-.105-.13-.235-.215-.375-.227a8.373 8.373 0 0 0-.201-.014h.895c-.092.131-.202.219-.32.24" mask="url(#Z)"/>
            <mask id="ac" fill="#fff">
                <use xlink:href="#aa"/>
            </mask>
            <path fill="url(#ab)" d="M46.696 300.17c-.193-.02-.384-.04-.573-.063h.876c-.101.02-.202.04-.303.063" mask="url(#ac)"/>
            <mask id="af" fill="#fff">
                <use xlink:href="#ad"/>
            </mask>
            <path fill="url(#ae)" d="M165.212 300.33l-.073-.04a5.15 5.15 0 0 0 .252-.158h2.748c.007.07.017.142.028.197h-2.955" mask="url(#af)"/>
            <mask id="ai" fill="#fff">
                <use xlink:href="#ag"/>
            </mask>
            <path fill="url(#ah)" d="M165.139 300.29a5.25 5.25 0 0 0-.33-.158h.582a5.15 5.15 0 0 1-.252.158" mask="url(#ai)"/>
            <mask id="al" fill="#fff">
                <use xlink:href="#aj"/>
            </mask>
            <path fill="url(#ak)" d="M170.386 301.357c-1.164-.1-1.932-.317-1.99-.71a.15.15 0 0 1-.007-.036c.339.22 1.055.475 1.997.746" mask="url(#al)"/>
            <mask id="ao" fill="#fff">
                <use xlink:href="#am"/>
            </mask>
            <path fill="url(#an)" d="M559.63 300.225v-.011l23.344.004-23.345.007" mask="url(#ao)"/>
            <mask id="ar" fill="#fff">
                <use xlink:href="#ap"/>
            </mask>
            <path fill="url(#aq)" d="M559.616 300.427h.013v-.213h-.013z" mask="url(#ar)"/>
            <mask id="au" fill="#fff">
                <use xlink:href="#as"/>
            </mask>
            <path fill="url(#at)" d="M-4.236 300.103l-.021-.006h.053l-.032.006" mask="url(#au)"/>
            <mask id="ax" fill="#fff">
                <use xlink:href="#av"/>
            </mask>
            <path fill="url(#aw)" d="M371.733 300.263a.993.993 0 0 0-.147-.088h.268a.95.95 0 0 1-.121.088" mask="url(#ax)"/>
            <mask id="aA" fill="#fff">
                <use xlink:href="#ay"/>
            </mask>
            <path fill="url(#az)" d="M387.908 300.198l-.038-.02h.134a1.274 1.274 0 0 0-.096.02" mask="url(#aA)"/>
            <mask id="aD" fill="#fff">
                <use xlink:href="#aB"/>
            </mask>
            <path fill="url(#aC)" d="M79.961 300.352c.31-.036.614-.085.914-.147.185.044.37.093.55.147h-1.464" mask="url(#aD)"/>
            <mask id="aG" fill="#fff">
                <use xlink:href="#aE"/>
            </mask>
            <path fill="url(#aF)" d="M78.73 300.422H59.036a.713.713 0 0 0-.167-.131c.232-.073.419-.207.519-.372H78.42a10.63 10.63 0 0 1 2.454.286 10.74 10.74 0 0 1-2.145.217" mask="url(#aG)"/>
            <mask id="aJ" fill="#fff">
                <use xlink:href="#aH"/>
            </mask>
            <path fill="url(#aI)" d="M46.325 300.259c.123-.032.247-.062.371-.09.126.013.252.026.38.037-.254.016-.504.033-.75.053" mask="url(#aJ)"/>
            <mask id="aM" fill="#fff">
                <use xlink:href="#aK"/>
            </mask>
            <path fill="url(#aL)" d="M58.87 300.29a1.418 1.418 0 0 0-.63-.173c-.562-.03-1.489-.062-3.31-.062-1.334 0-3.149.017-5.653.062-.756.014-1.491.044-2.202.09a34.664 34.664 0 0 1-.379-.037c.101-.023.202-.043.303-.063a10.685 10.685 0 0 1 1.997-.188h10.392c-.1.165-.287.3-.519.372" mask="url(#aM)"/>
            <mask id="aP" fill="#fff">
                <use xlink:href="#aN"/>
            </mask>
            <path fill="url(#aO)" d="M-5.412 300.374c.383-.11.776-.2 1.176-.271.486.128.983.22 1.487.27l-2.663.001m11.82-.003c.171-.033.336-.082.495-.146.092.044.18.093.266.146h-.76" mask="url(#aP)"/>
            <mask id="aS" fill="#fff">
                <use xlink:href="#aQ"/>
            </mask>
            <path fill="url(#aR)" d="M5.876 300.422h-7.66a9.498 9.498 0 0 1-2.452-.32l.032-.005c.67-.117 1.358-.178 2.054-.178h7.666c.383 0 .749.063 1.082.18.105.037.207.079.305.126a2.722 2.722 0 0 1-1.027.197" mask="url(#aS)"/>
            <mask id="aV" fill="#fff">
                <use xlink:href="#aT"/>
            </mask>
            <path fill="url(#aU)" d="M15.386 300.369c.44-.07.896-.128 1.368-.17.562.077 1.147.127 1.751.149l.608.02h-3.727m8.922-.001c.073-.007.14-.013.199-.02l.026-.003a.68.68 0 0 1 .017.022h-.242" mask="url(#aV)"/>
            <mask id="aY" fill="#fff">
                <use xlink:href="#aW"/>
            </mask>
            <path fill="url(#aX)" d="M22.29 300.428c-.782 0-1.81-.017-3.177-.06l-.608-.02a17.651 17.651 0 0 1-1.75-.149c.452-.04.919-.068 1.398-.082l.612-.016c1.367-.033 2.394-.046 3.175-.046 1.025 0 1.626.022 2.017.048.074.004.14.01.2.014.141.012.271.097.376.227l-.026.004-.2.019c-.39.032-.991.061-2.017.061" mask="url(#aY)"/>
            <mask id="bb" fill="#fff">
                <use xlink:href="#aZ"/>
            </mask>
            <path fill="url(#ba)" d="M45.222 300.361a42.29 42.29 0 0 1 1.853-.155l.211.018c.294.058.593.103.895.136l-2.959.001" mask="url(#bb)"/>
            <mask id="be" fill="#fff">
                <use xlink:href="#bc"/>
            </mask>
            <path fill="url(#bd)" d="M59.036 300.422h-2.708c1.138-.012 1.8-.043 2.24-.074.106-.008.207-.028.301-.057a.713.713 0 0 1 .167.131m-5.001 0h-4.699a10.808 10.808 0 0 1-2.05-.198c.75.063 1.525.105 2.325.124 1.808.042 3.256.065 4.424.074" mask="url(#be)"/>
            <mask id="bh" fill="#fff">
                <use xlink:href="#bf"/>
            </mask>
            <path fill="url(#bg)" d="M55.26 300.428c-.37 0-.778-.002-1.225-.006a288.513 288.513 0 0 1-4.424-.074 38.728 38.728 0 0 1-2.536-.142c.71-.045 1.446-.075 2.202-.089 2.504-.045 4.319-.062 5.653-.062 1.821 0 2.748.031 3.31.062.246.014.467.078.63.174-.095.03-.196.049-.302.057-.44.03-1.102.062-2.24.074-.317.004-.671.006-1.069.006" mask="url(#bh)"/>
            <mask id="bk" fill="#fff">
                <use xlink:href="#bi"/>
            </mask>
            <path fill="url(#bj)" d="M420.903 300.262a7.12 7.12 0 0 1 .65-.043s.051 0 .147.008c.045.01.134.022.249.034h-1.046" mask="url(#bk)"/>
            <mask id="bn" fill="#fff">
                <use xlink:href="#bl"/>
            </mask>
            <path fill="url(#bm)" d="M422.057 300.27a5.272 5.272 0 0 1 0 0" mask="url(#bn)"/>
            <mask id="bq" fill="#fff">
                <use xlink:href="#bo"/>
            </mask>
            <path fill="url(#bp)" d="M423.027 300.26c.102-.008.204-.02.312-.035.09.01.179.022.268.036h-.58m-1.327-.034c-.096-.008-.147-.008-.147-.008l.026-.004.07.003.051.01" mask="url(#bq)"/>
            <mask id="bt" fill="#fff">
                <use xlink:href="#br"/>
            </mask>
            <path fill="url(#bs)" d="M421.649 300.218l-.07-.003a3.63 3.63 0 0 1 .268-.03c.057-.004.127-.009.197-.012-.248.044-.395.045-.395.045" mask="url(#bt)"/>
            <mask id="bw" fill="#fff">
                <use xlink:href="#bu"/>
            </mask>
            <path fill="url(#bv)" d="M422.472 300.286c-.16 0-.3-.006-.415-.015a5.272 5.272 0 0 0-.357-.044l-.051-.01s.147 0 .395-.044a6.946 6.946 0 0 1 .88.012c.135.01.275.022.415.04a6.623 6.623 0 0 1-.867.061" mask="url(#bw)"/>
            <mask id="bz" fill="#fff">
                <use xlink:href="#bx"/>
            </mask>
            <path fill="url(#by)" d="M447.162 300.255c.09-.016.178-.03.274-.044l.121.024c.039.007.077.014.122.02h-.517" mask="url(#bz)"/>
            <mask id="bC" fill="#fff">
                <use xlink:href="#bA"/>
            </mask>
            <path fill="url(#bB)" d="M447.819 300.271a2.51 2.51 0 0 1-.262-.036s.077.011.21.025l.052.011m-.262-.036l-.12-.024.037-.006a3.536 3.536 0 0 1 .358-.034l-.02.005c-.216.015-.338.03-.338.03s.045.005.128.02l-.045.009" mask="url(#bC)"/>
            <mask id="bF" fill="#fff">
                <use xlink:href="#bD"/>
            </mask>
            <path fill="url(#bE)" d="M447.768 300.26c-.134-.014-.21-.025-.21-.025l.044-.008c.045.008.102.019.166.033m.044-.084l.02-.005c.044-.003.095-.004.14-.005l-.16.01" mask="url(#bF)"/>
            <mask id="bI" fill="#fff">
                <use xlink:href="#bG"/>
            </mask>
            <path fill="url(#bH)" d="M449.943 300.254a8.69 8.69 0 0 0 .255-.03c.083.008.166.018.249.03h-.504" mask="url(#bI)"/>
            <mask id="bL" fill="#fff">
                <use xlink:href="#bJ"/>
            </mask>
            <path fill="url(#bK)" d="M448.061 300.286a3.213 3.213 0 0 1-.242-.015 1.282 1.282 0 0 1-.051-.01c.076.008.178.017.293.025m-.459-.06c-.083-.015-.128-.02-.128-.02s.122-.015.338-.03c-.095.026-.172.042-.21.05" mask="url(#bL)"/>
            <mask id="bO" fill="#fff">
                <use xlink:href="#bM"/>
            </mask>
            <path fill="url(#bN)" d="M448.82 300.312a10.616 10.616 0 0 1-1.052-.052 3.901 3.901 0 0 0-.166-.033c.038-.009.115-.025.21-.05l.16-.011a13.923 13.923 0 0 1 2.226.057 10.678 10.678 0 0 1-1.378.089" mask="url(#bO)"/>
            <mask id="bR" fill="#fff">
                <use xlink:href="#bP"/>
            </mask>
            <path fill="url(#bQ)" d="M145.947 300.334a.577.577 0 0 1 .05-.206.547.547 0 0 1 .215-.186c.007.15.021.303.04.347l.017.045h-.322m19.124-.005l.068-.039.073.04h-.141" mask="url(#bR)"/>
            <mask id="bU" fill="#fff">
                <use xlink:href="#bS"/>
            </mask>
            <path fill="url(#bT)" d="M156.24 301.535c-4.134 0-9.53-.198-9.97-1.2a.432.432 0 0 1-.017-.046c-.02-.044-.034-.198-.04-.347 1.118-.615 5.864-.748 9.63-.751h.29c1.615.001 3.022.026 3.843.045 1.743.04 3.564.334 4.834.896.114.05.224.103.329.158l-.068.04c-1.269.719-3.089 1.096-4.831 1.147-.847.025-2.32.058-4 .058" mask="url(#bU)"/>
            <mask id="bX" fill="#fff">
                <use xlink:href="#bV"/>
            </mask>
            <path fill="url(#bW)" d="M185.535 300.324c.11-.025.22-.05.33-.078.116.025.23.05.344.077l-.674.001" mask="url(#bX)"/>
            <mask id="ca" fill="#fff">
                <use xlink:href="#bY"/>
            </mask>
            <path fill="url(#bZ)" d="M168.39 300.611a.547.547 0 0 1-.2-.19.492.492 0 0 1-.023-.092h.231c-.01.111-.014.22-.009.282" mask="url(#ca)"/>
            <mask id="cd" fill="#fff">
                <use xlink:href="#cb"/>
            </mask>
            <path fill="url(#cc)" d="M168.167 300.329a2.503 2.503 0 0 1-.028-.196.823.823 0 0 1-.003-.249c.038-.198.371-.339.915-.434-.333.185-.545.357-.602.51a2.41 2.41 0 0 0-.05.369h-.232" mask="url(#cd)"/>
            <mask id="cg" fill="#fff">
                <use xlink:href="#ce"/>
            </mask>
            <path fill="url(#cf)" d="M172.31 301.425c-.71 0-1.364-.02-1.924-.068-.942-.27-1.658-.526-1.997-.746-.005-.061 0-.17.01-.282a2.41 2.41 0 0 1 .05-.37c.057-.152.27-.324.602-.51.706-.124 1.768-.172 3.003-.172 3.655 0 8.83.425 10.813.574.82.062 1.646.152 2.42.285.196.034.39.07.578.11-.11.028-.22.053-.33.078-.773.17-1.598.286-2.418.365-1.98.191-7.154.736-10.807.736" mask="url(#cg)"/>
            <mask id="cj" fill="#fff">
                <use xlink:href="#ch"/>
            </mask>
            <path fill="url(#ci)" d="M370.33 300.275a.879.879 0 0 1 .166-.1c.038.037.089.07.133.1h-.3m1.385 0l.019-.012.02.011h-.04" mask="url(#cj)"/>
            <mask id="cm" fill="#fff">
                <use xlink:href="#ck"/>
            </mask>
            <path fill="url(#cl)" d="M371.172 300.427c-.198 0-.383-.054-.543-.152-.044-.03-.095-.063-.133-.1.159-.077.344-.12.542-.12l.172.01c.134.019.261.056.376.11a.993.993 0 0 1 .147.088l-.02.011a1.012 1.012 0 0 1-.37.14l-.171.013" mask="url(#cm)"/>
            <mask id="cp" fill="#fff">
                <use xlink:href="#cn"/>
            </mask>
            <path fill="url(#co)" d="M296.91 300.294c.065-.05.14-.096.221-.132.06.05.117.094.187.132h-.408m1.429 0a.088.088 0 0 1 .025-.016l.02.016h-.045" mask="url(#cp)"/>
            <mask id="cs" fill="#fff">
                <use xlink:href="#cq"/>
            </mask>
            <path fill="url(#cr)" d="M297.828 300.427l-.172-.013a1.05 1.05 0 0 1-.525-.252l.007-.002c.104-.046.218-.078.34-.094l.172-.011c.178 0 .357.038.51.105.07.032.14.072.204.118a1.057 1.057 0 0 1-.536.15" mask="url(#cs)"/>
            <mask id="cv" fill="#fff">
                <use xlink:href="#ct"/>
            </mask>
            <path fill="url(#cu)" d="M314.45 300.29a.893.893 0 0 1 .204-.125c.058.047.115.089.172.125h-.376m1.416-.001c.006-.004.02-.01.026-.015l.019.015h-.045" mask="url(#cv)"/>
            <mask id="cy" fill="#fff">
                <use xlink:href="#cw"/>
            </mask>
            <path fill="url(#cx)" d="M315.35 300.427l-.166-.013a1.1 1.1 0 0 1-.358-.124 1.712 1.712 0 0 1-.172-.125c.007 0 .007-.002.007-.002a1.26 1.26 0 0 1 .35-.097l.173-.011c.185 0 .363.039.516.108.07.031.134.069.192.111-.007.005-.02.01-.026.015a1.033 1.033 0 0 1-.517.138" mask="url(#cy)"/>
            <mask id="cB" fill="#fff">
                <use xlink:href="#cz"/>
            </mask>
            <path fill="url(#cA)" d="M387.698 300.27c.07-.03.14-.054.21-.072.07.032.147.057.223.072h-.433m.848 0c.038-.008.076-.018.115-.03.025.009.044.019.07.03h-.185" mask="url(#cB)"/>
            <mask id="cE" fill="#fff">
                <use xlink:href="#cC"/>
            </mask>
            <path fill="url(#cD)" d="M388.335 300.292a1.037 1.037 0 0 1-.427-.094 1.274 1.274 0 0 1 .306-.037l.166.01.045.007c.083.013.16.034.236.062a1.087 1.087 0 0 1-.115.03l-.045.008-.166.014" mask="url(#cE)"/>
            <mask id="cH" fill="#fff">
                <use xlink:href="#cF"/>
            </mask>
            <path fill="url(#cG)" d="M533.957 300.427h25.66v-.372h-25.66z" mask="url(#cH)"/>
            <mask id="cK" fill="#fff">
                <use xlink:href="#cI"/>
            </mask>
            <path fill="url(#cJ)" d="M533.925 300.427h.032v-.372h-.032z" mask="url(#cK)"/>
            <mask id="cN" fill="#fff">
                <use xlink:href="#cL"/>
            </mask>
            <path fill="url(#cM)" d="M477.414 300.246h.064v-.191h-.064z" mask="url(#cN)"/>
            <mask id="cQ" fill="#fff">
                <use xlink:href="#cO"/>
            </mask>
            <path fill="url(#cP)" d="M477.478 300.427h56.447v-.372h-56.447z" mask="url(#cQ)"/>
        </g>
    </g>
</svg>
